classDiagram
    Iphone --> ReprodutorMusical
    Iphone --> AparelhoTelefonico
    Iphone --> NavegadorInternet
   
    class ReprodutorMusical{
      +tocar()
      +pausar()
      +selecionarMusica(String musica)
    }
    class AparelhoTelefonico{
      +atender()
      +iniciarCorreioVoz()
      +ligar(String numero)
    }
    class NavegadorInternet{
      +atualizarPagina()
      +adicionarNovaAba()
      exibirPagina(String url)
    }